<?xml version="1.0" encoding="UTF-8" standalone="no"?>
<svg
   width="42.434303mm"
   height="41.429893mm"
   viewBox="0 0 42.434303 41.429893"
   version="1.1"
   id="svg397"
   inkscape:version="1.1 (c68e22c387, 2021-05-23)"
   sodipodi:docname="drawing.svg"
   xmlns:inkscape="http://www.inkscape.org/namespaces/inkscape"
   xmlns:sodipodi="http://sodipodi.sourceforge.net/DTD/sodipodi-0.dtd"
   xmlns="http://www.w3.org/2000/svg"
   xmlns:svg="http://www.w3.org/2000/svg">
  <sodipodi:namedview
     id="namedview399"
     pagecolor="#505050"
     bordercolor="#ffffff"
     borderopacity="1"
     inkscape:pageshadow="0"
     inkscape:pageopacity="0"
     inkscape:pagecheckerboard="1"
     inkscape:document-units="mm"
     showgrid="false"
     inkscape:zoom="4.3994184"
     inkscape:cx="87.852522"
     inkscape:cy="96.035421"
     inkscape:window-width="1284"
     inkscape:window-height="1081"
     inkscape:window-x="935"
     inkscape:window-y="147"
     inkscape:window-maximized="0"
     inkscape:current-layer="layer1" />
  <defs
     id="defs394" />
  <g
     inkscape:label="Layer 1"
     inkscape:groupmode="layer"
     id="layer1"
     transform="translate(-146.84576,-97.35215)">
    <path
       d="m 168.06203,97.274208 c -11.76408,0 -21.30354,9.537352 -21.30354,21.303192 0,9.41247 6.10411,17.39794 14.56866,20.21495 1.06468,0.19716 1.45556,-0.46221 1.45556,-1.02489 0,-0.508 -0.0198,-2.18617 -0.0289,-3.96629 -5.92666,1.2887 -7.17726,-2.51354 -7.17726,-2.51354 -0.96908,-2.46239 -2.36538,-3.11714 -2.36538,-3.11714 -1.93286,-1.32221 0.1457,-1.29505 0.1457,-1.29505 2.13925,0.14993 3.26567,2.19534 3.26567,2.19534 1.90006,3.25684 4.98369,2.31528 6.19936,1.77094 0.19121,-1.37654 0.7433,-2.31704 1.35255,-2.84868 -4.73181,-0.53869 -9.70598,-2.36537 -9.70598,-10.5283 0,-2.32586 0.83221,-4.22628 2.19499,-5.71818 -0.22119,-0.53692 -0.95039,-2.70333 0.20637,-5.63774 0,0 1.78894,-0.57256 5.86,2.1837 1.69933,-0.47202 3.52178,-0.70873 5.33223,-0.71685 1.81046,0.008 3.63432,0.24483 5.33682,0.71685 4.06612,-2.75626 5.85259,-2.1837 5.85259,-2.1837 1.15958,2.93441 0.43003,5.10082 0.20884,5.63774 1.36596,1.4919 2.19252,3.39232 2.19252,5.71818 0,8.18233 -4.9837,9.98396 -9.7275,10.51137 0.76412,0.6611 1.44498,1.95756 1.44498,3.94511 0,2.85009 -0.0247,5.14421 -0.0247,5.84624 0,0.56691 0.38347,1.23115 1.46333,1.02199 8.45996,-2.8201 14.55631,-10.80276 14.55631,-20.21205 0,-11.76584 -9.53805,-21.303192 -21.30319,-21.303192"
       style="fill:#ffffff;fill-opacity:1;fill-rule:evenodd;stroke:none;stroke-width:0.0352778"
       id="path113" />
    <path
       style="fill:#ffffff;stroke-width:0.321455"
       d="M 606.74568,523.32873 C 578.53623,512.46448 558.62582,486.765 555.31773,456.9478 c -0.41348,-3.72682 -0.4135,-13.95283 -5e-5,-17.68 1.36886,-12.33978 6.02557,-25.09721 12.96575,-35.52074 6.30273,-9.46613 15.78853,-18.54128 25.44333,-24.34188 13.03835,-7.83343 26.16108,-11.46004 41.46766,-11.46004 15.34723,0 29.0148,3.80115 41.75808,11.61354 20.97023,12.856 34.74016,34.14873 37.9487,58.68086 0.57693,4.41117 0.65875,14.18124 0.15745,18.8013 -3.23638,29.82705 -23.60008,55.90194 -51.89019,66.44327 -3.84004,1.43087 -5.18618,1.4033 -6.72802,-0.13777 l -0.99438,-0.99389 -0.17823,-14.70086 c -0.15758,-12.99738 -0.24551,-14.90573 -0.75874,-16.46886 -0.7498,-2.28364 -1.60934,-3.97332 -2.97552,-5.84923 l -1.09939,-1.5096 1.22012,-0.19923 c 13.14435,-2.14633 19.81504,-5.01497 25.50967,-10.97011 2.67229,-2.79453 3.86356,-4.54933 5.65334,-8.32758 2.63323,-5.55881 3.76954,-11.59545 3.74889,-19.91591 -0.012,-4.84447 -0.10922,-5.82698 -0.85635,-8.65633 -1.03542,-3.92109 -3.14305,-8.29256 -5.43037,-11.26324 l -1.7244,-2.23957 0.5951,-2.10007 c 0.77716,-2.74254 1.0686,-8.19022 0.60248,-11.26153 -0.20124,-1.326 -0.75412,-3.69461 -1.22862,-5.26358 l -0.86273,-2.85268 -3.07126,0.16366 c -4.60244,0.24525 -10.22324,2.44877 -16.86726,6.61247 l -2.54509,1.59497 -1.49797,-0.44485 c -2.61486,-0.77653 -8.70845,-1.69332 -13.70368,-2.06174 -7.00142,-0.51638 -16.04187,0.2462 -22.48808,1.89692 l -2.27662,0.58298 -2.5452,-1.58468 c -6.69222,-4.16668 -12.27945,-6.35159 -16.86737,-6.59607 l -3.07126,-0.16366 -0.86273,2.85268 c -0.4745,1.56897 -1.02738,3.93758 -1.22862,5.26358 -0.46612,3.07131 -0.17467,8.51899 0.60248,11.26153 l 0.5951,2.10007 -1.7244,2.23957 c -3.60256,4.67885 -5.94058,11.07047 -6.36674,17.40524 -0.41368,6.14937 0.80552,14.86821 2.82388,20.19434 2.07926,5.48684 6.22396,10.97496 10.67102,14.12984 5.16705,3.66565 12.45618,6.22672 21.1363,7.42635 l 1.50231,0.20762 -1.38778,2.02706 c -1.52847,2.23256 -2.66339,4.95952 -2.95769,7.10663 -0.18254,1.33176 -0.2651,1.42199 -1.83605,2.00655 -2.90143,1.07963 -5.10908,1.41507 -8.42368,1.2799 -2.75279,-0.11225 -3.48321,-0.26917 -5.36824,-1.15334 -2.74051,-1.28542 -5.41291,-3.80226 -7.78703,-7.33373 -3.03934,-4.52099 -6.20855,-6.95719 -10.47111,-8.0492 -2.84589,-0.72908 -5.75851,-0.15124 -5.75851,1.14244 0,1.19271 0.45584,1.71626 3.36504,3.86487 3.65932,2.70262 5.41604,4.96681 7.98692,10.29411 1.67012,3.4608 2.25466,4.33139 4.21394,6.27611 3.43204,3.40652 7.13699,4.96097 13.04357,5.47258 2.18134,0.18894 6.86217,-0.15043 9.58451,-0.69489 l 1.05493,-0.21099 -0.0961,8.2348 -0.0961,8.2348 -1.00562,1.00506 c -1.56641,1.56554 -3.06707,1.5595 -7.19147,-0.0289 z"
       id="path498"
       transform="scale(0.26458333)" />
  </g>
</svg>
